<?xml version="1.0" encoding="UTF-8" standalone="no"?>
<!-- Created with Inkscape (http://www.inkscape.org/) -->

<svg
   width="210mm"
   height="297mm"
   viewBox="0 0 210 297"
   version="1.1"
   id="svg1"
   sodipodi:docname="flooflogo.svg"
   inkscape:version="1.3 (0e150ed6c4, 2023-07-21)"
   inkscape:export-filename="flooflogo.png"
   inkscape:export-xdpi="5.3660092"
   inkscape:export-ydpi="5.3660092"
   xmlns:inkscape="http://www.inkscape.org/namespaces/inkscape"
   xmlns:sodipodi="http://sodipodi.sourceforge.net/DTD/sodipodi-0.dtd"
   xmlns:xlink="http://www.w3.org/1999/xlink"
   xmlns="http://www.w3.org/2000/svg"
   xmlns:svg="http://www.w3.org/2000/svg">
  <sodipodi:namedview
     id="namedview1"
     pagecolor="#ffffff"
     bordercolor="#000000"
     borderopacity="0.25"
     inkscape:showpageshadow="2"
     inkscape:pageopacity="0.0"
     inkscape:pagecheckerboard="0"
     inkscape:deskcolor="#d1d1d1"
     inkscape:document-units="mm"
     inkscape:export-bgcolor="#00000000"
     inkscape:zoom="1.3622282"
     inkscape:cx="393.10594"
     inkscape:cy="521.57194"
     inkscape:window-width="1920"
     inkscape:window-height="1017"
     inkscape:window-x="-8"
     inkscape:window-y="-8"
     inkscape:window-maximized="1"
     inkscape:current-layer="layer1" />
  <defs
     id="defs1">
    <linearGradient
       id="linearGradient104"
       inkscape:collect="always">
      <stop
         style="stop-color:#217844;stop-opacity:1;"
         offset="0"
         id="stop105" />
      <stop
         style="stop-color:#206055;stop-opacity:1;"
         offset="1"
         id="stop106" />
    </linearGradient>
    <linearGradient
       id="linearGradient102"
       inkscape:collect="always">
      <stop
         style="stop-color:#217844;stop-opacity:1;"
         offset="0"
         id="stop103" />
      <stop
         style="stop-color:#206055;stop-opacity:1;"
         offset="1"
         id="stop104" />
    </linearGradient>
    <linearGradient
       id="linearGradient100"
       inkscape:collect="always">
      <stop
         style="stop-color:#217844;stop-opacity:1;"
         offset="0"
         id="stop101" />
      <stop
         style="stop-color:#206055;stop-opacity:1;"
         offset="1"
         id="stop102" />
    </linearGradient>
    <linearGradient
       id="linearGradient98"
       inkscape:collect="always">
      <stop
         style="stop-color:#217844;stop-opacity:1;"
         offset="0"
         id="stop99" />
      <stop
         style="stop-color:#206055;stop-opacity:1;"
         offset="1"
         id="stop100" />
    </linearGradient>
    <linearGradient
       id="linearGradient97"
       inkscape:collect="always">
      <stop
         style="stop-color:#217844;stop-opacity:1;"
         offset="0.37292162"
         id="stop97" />
      <stop
         style="stop-color:#206055;stop-opacity:1;"
         offset="1"
         id="stop98" />
    </linearGradient>
    <linearGradient
       id="linearGradient93"
       inkscape:collect="always">
      <stop
         style="stop-color:#217844;stop-opacity:1;"
         offset="0.30166271"
         id="stop94" />
      <stop
         style="stop-color:#206055;stop-opacity:1;"
         offset="1"
         id="stop95" />
    </linearGradient>
    <linearGradient
       id="linearGradient91"
       inkscape:collect="always">
      <stop
         style="stop-color:#217844;stop-opacity:1;"
         offset="0"
         id="stop92" />
      <stop
         style="stop-color:#206055;stop-opacity:1;"
         offset="1"
         id="stop93" />
    </linearGradient>
    <linearGradient
       id="linearGradient89"
       inkscape:collect="always">
      <stop
         style="stop-color:#217844;stop-opacity:1;"
         offset="0"
         id="stop90" />
      <stop
         style="stop-color:#206055;stop-opacity:1;"
         offset="1"
         id="stop91" />
    </linearGradient>
    <linearGradient
       id="linearGradient87"
       inkscape:collect="always">
      <stop
         style="stop-color:#217844;stop-opacity:1;"
         offset="0"
         id="stop88" />
      <stop
         style="stop-color:#206055;stop-opacity:1;"
         offset="1"
         id="stop89" />
    </linearGradient>
    <linearGradient
       id="linearGradient85"
       inkscape:collect="always">
      <stop
         style="stop-color:#217844;stop-opacity:1;"
         offset="0"
         id="stop86" />
      <stop
         style="stop-color:#206055;stop-opacity:1;"
         offset="1"
         id="stop87" />
    </linearGradient>
    <linearGradient
       id="linearGradient83"
       inkscape:collect="always">
      <stop
         style="stop-color:#217844;stop-opacity:1;"
         offset="0"
         id="stop84" />
      <stop
         style="stop-color:#206055;stop-opacity:1;"
         offset="1"
         id="stop85" />
    </linearGradient>
    <linearGradient
       id="linearGradient81"
       inkscape:collect="always">
      <stop
         style="stop-color:#217844;stop-opacity:1;"
         offset="0.52969122"
         id="stop82" />
      <stop
         style="stop-color:#1d6357;stop-opacity:1;"
         offset="1"
         id="stop83" />
    </linearGradient>
    <linearGradient
       id="linearGradient80"
       inkscape:collect="always">
      <stop
         style="stop-color:#abc837;stop-opacity:1;"
         offset="0.58432305"
         id="stop80" />
      <stop
         style="stop-color:#87b732;stop-opacity:1;"
         offset="1"
         id="stop81" />
    </linearGradient>
    <linearGradient
       id="linearGradient77"
       inkscape:collect="always">
      <stop
         style="stop-color:#76a62f;stop-opacity:1;"
         offset="0"
         id="stop78" />
      <stop
         style="stop-color:#abc837;stop-opacity:1;"
         offset="1"
         id="stop79" />
    </linearGradient>
    <linearGradient
       id="linearGradient76"
       inkscape:collect="always">
      <stop
         style="stop-color:#2c8637;stop-opacity:1;"
         offset="0"
         id="stop76" />
      <stop
         style="stop-color:#5aa02c;stop-opacity:1;"
         offset="1"
         id="stop77" />
    </linearGradient>
    <linearGradient
       id="linearGradient74"
       inkscape:collect="always">
      <stop
         style="stop-color:#efd3c2;stop-opacity:1;"
         offset="0.04513066"
         id="stop74" />
      <stop
         style="stop-color:#f7ebe3;stop-opacity:1;"
         offset="1"
         id="stop75" />
    </linearGradient>
    <linearGradient
       id="linearGradient71"
       inkscape:collect="always">
      <stop
         style="stop-color:#e9c6af;stop-opacity:1;"
         offset="0"
         id="stop72" />
      <stop
         style="stop-color:#f7ebe3;stop-opacity:1;"
         offset="1"
         id="stop73" />
    </linearGradient>
    <linearGradient
       id="linearGradient69"
       inkscape:collect="always">
      <stop
         style="stop-color:#ff7f2a;stop-opacity:1;"
         offset="0"
         id="stop70" />
      <stop
         style="stop-color:#ff671a;stop-opacity:1;"
         offset="1"
         id="stop71" />
    </linearGradient>
    <linearGradient
       id="linearGradient67"
       inkscape:collect="always">
      <stop
         style="stop-color:#ff6600;stop-opacity:1;"
         offset="0"
         id="stop68" />
      <stop
         style="stop-color:#e24700;stop-opacity:1;"
         offset="1"
         id="stop69" />
    </linearGradient>
    <linearGradient
       id="linearGradient66"
       inkscape:collect="always">
      <stop
         style="stop-color:#ab683f;stop-opacity:1;"
         offset="0.47743469"
         id="stop66" />
      <stop
         style="stop-color:#7c4134;stop-opacity:1;"
         offset="1"
         id="stop67" />
    </linearGradient>
    <linearGradient
       id="linearGradient64"
       inkscape:collect="always">
      <stop
         style="stop-color:#6faaff;stop-opacity:1;"
         offset="0"
         id="stop64" />
      <stop
         style="stop-color:#2a7fff;stop-opacity:1;"
         offset="1"
         id="stop65" />
    </linearGradient>
    <linearGradient
       id="linearGradient61"
       inkscape:collect="always">
      <stop
         style="stop-color:#2a7fff;stop-opacity:1;"
         offset="0.44655582"
         id="stop61" />
      <stop
         style="stop-color:#5caaff;stop-opacity:1;"
         offset="1"
         id="stop62" />
    </linearGradient>
    <linearGradient
       id="linearGradient57"
       inkscape:collect="always">
      <stop
         style="stop-color:#d4aa00;stop-opacity:1;"
         offset="0.6199525"
         id="stop58" />
      <stop
         style="stop-color:#c57700;stop-opacity:1;"
         offset="1"
         id="stop59" />
    </linearGradient>
    <linearGradient
       id="linearGradient56"
       inkscape:collect="always">
      <stop
         style="stop-color:#423434;stop-opacity:1;"
         offset="0.78384793"
         id="stop56" />
      <stop
         style="stop-color:#312424;stop-opacity:1;"
         offset="1"
         id="stop57" />
    </linearGradient>
    <linearGradient
       id="linearGradient53"
       inkscape:collect="always">
      <stop
         style="stop-color:#f2eded;stop-opacity:1;"
         offset="0.45368168"
         id="stop54" />
      <stop
         style="stop-color:#beacb6;stop-opacity:1;"
         offset="1"
         id="stop55" />
    </linearGradient>
    <linearGradient
       id="linearGradient52"
       inkscape:collect="always">
      <stop
         style="stop-color:#3a2c2c;stop-opacity:1;"
         offset="0.68646079"
         id="stop52" />
      <stop
         style="stop-color:#261d1f;stop-opacity:1;"
         offset="1"
         id="stop53" />
    </linearGradient>
    <linearGradient
       id="linearGradient49"
       inkscape:collect="always">
      <stop
         style="stop-color:#a4bfc6;stop-opacity:1;"
         offset="0"
         id="stop50" />
      <stop
         style="stop-color:#708f92;stop-opacity:1;"
         offset="1"
         id="stop51" />
    </linearGradient>
    <linearGradient
       id="linearGradient48"
       inkscape:collect="always">
      <stop
         style="stop-color:#62919a;stop-opacity:1;"
         offset="0"
         id="stop48" />
      <stop
         style="stop-color:#434d4e;stop-opacity:1;"
         offset="1"
         id="stop49" />
    </linearGradient>
    <rect
       x="150.3985"
       y="324.0404"
       width="679.52775"
       height="549.63816"
       id="rect3" />
    <rect
       x="493.58052"
       y="437.5229"
       width="45.119549"
       height="98.442652"
       id="rect2" />
    <rect
       x="187.31449"
       y="381.46528"
       width="462.13357"
       height="217.39419"
       id="rect1" />
    <radialGradient
       inkscape:collect="always"
       xlink:href="#linearGradient48"
       id="radialGradient49"
       cx="179.61384"
       cy="113.04849"
       fx="179.61384"
       fy="113.04849"
       r="25.32327"
       gradientTransform="matrix(1,0,0,1.071566,0,-8.0904272)"
       gradientUnits="userSpaceOnUse" />
    <linearGradient
       inkscape:collect="always"
       xlink:href="#linearGradient49"
       id="linearGradient51"
       x1="147.72711"
       y1="123.50765"
       x2="196.75807"
       y2="123.50765"
       gradientUnits="userSpaceOnUse" />
    <radialGradient
       inkscape:collect="always"
       xlink:href="#linearGradient52"
       id="radialGradient53"
       cx="83.74249"
       cy="116.25657"
       fx="83.74249"
       fy="116.25657"
       r="25.405366"
       gradientTransform="matrix(1,0,0,0.73328957,0,31.186596)"
       gradientUnits="userSpaceOnUse" />
    <linearGradient
       inkscape:collect="always"
       xlink:href="#linearGradient53"
       id="linearGradient55"
       x1="54.524967"
       y1="121.92693"
       x2="112.17945"
       y2="121.92693"
       gradientUnits="userSpaceOnUse" />
    <radialGradient
       inkscape:collect="always"
       xlink:href="#linearGradient56"
       id="radialGradient57"
       cx="87.357417"
       cy="121.21852"
       fx="87.357417"
       fy="121.21852"
       r="31.094613"
       gradientTransform="matrix(1,0,0,0.99688477,0,0.37762408)"
       gradientUnits="userSpaceOnUse" />
    <radialGradient
       inkscape:collect="always"
       xlink:href="#linearGradient57"
       id="radialGradient59"
       cx="77.736885"
       cy="156.33716"
       fx="77.736885"
       fy="156.33716"
       r="4.5727582"
       gradientTransform="matrix(1,0,0,1.055944,0,-8.7461254)"
       gradientUnits="userSpaceOnUse" />
    <radialGradient
       inkscape:collect="always"
       xlink:href="#linearGradient61"
       id="radialGradient62"
       cx="78.664223"
       cy="147.63419"
       fx="78.664223"
       fy="147.63419"
       r="4.6686878"
       gradientTransform="matrix(1,0,0,1.2545265,0,-37.57682)"
       gradientUnits="userSpaceOnUse" />
    <linearGradient
       inkscape:collect="always"
       xlink:href="#linearGradient64"
       id="linearGradient65"
       x1="68.687301"
       y1="150.67669"
       x2="78.409929"
       y2="150.67669"
       gradientUnits="userSpaceOnUse" />
    <radialGradient
       inkscape:collect="always"
       xlink:href="#linearGradient66"
       id="radialGradient67"
       cx="72.067078"
       cy="124.01237"
       fx="72.067078"
       fy="124.01237"
       r="17.188304"
       gradientTransform="matrix(1,0,0,1.8634612,0,-107.07987)"
       gradientUnits="userSpaceOnUse" />
    <radialGradient
       inkscape:collect="always"
       xlink:href="#linearGradient67"
       id="radialGradient69"
       cx="36.64402"
       cy="132.11117"
       fx="36.64402"
       fy="132.11117"
       r="17.486269"
       gradientTransform="matrix(1,0,0,1.0551567,0,-7.2868171)"
       gradientUnits="userSpaceOnUse" />
    <radialGradient
       inkscape:collect="always"
       xlink:href="#linearGradient69"
       id="radialGradient71"
       cx="33.646584"
       cy="119.96543"
       fx="33.646584"
       fy="119.96543"
       r="28.374988"
       gradientTransform="matrix(1,0,0,1.1598542,0,-19.176976)"
       gradientUnits="userSpaceOnUse" />
    <linearGradient
       inkscape:collect="always"
       xlink:href="#linearGradient71"
       id="linearGradient73"
       x1="41.323051"
       y1="118.77167"
       x2="60.642918"
       y2="118.77167"
       gradientUnits="userSpaceOnUse" />
    <linearGradient
       inkscape:collect="always"
       xlink:href="#linearGradient74"
       id="linearGradient75"
       x1="41.501938"
       y1="94.065098"
       x2="81.007577"
       y2="94.065098"
       gradientUnits="userSpaceOnUse" />
    <radialGradient
       inkscape:collect="always"
       xlink:href="#linearGradient76"
       id="radialGradient77"
       cx="92.338843"
       cy="124.26153"
       fx="92.338843"
       fy="124.26153"
       r="22.96731"
       gradientTransform="matrix(1,0,0,1.1938687,0,-24.090421)"
       gradientUnits="userSpaceOnUse" />
    <linearGradient
       inkscape:collect="always"
       xlink:href="#linearGradient77"
       id="linearGradient79"
       x1="83.513143"
       y1="128.71148"
       x2="98.495847"
       y2="128.71148"
       gradientUnits="userSpaceOnUse" />
    <radialGradient
       inkscape:collect="always"
       xlink:href="#linearGradient80"
       id="radialGradient81"
       cx="102.02197"
       cy="116.33788"
       fx="102.02197"
       fy="116.33788"
       r="14.224347"
       gradientTransform="matrix(1,0,0,1.3440592,0,-40.027113)"
       gradientUnits="userSpaceOnUse" />
    <radialGradient
       inkscape:collect="always"
       xlink:href="#linearGradient81"
       id="radialGradient83"
       cx="86.223643"
       cy="95.48408"
       fx="86.223643"
       fy="95.48408"
       r="3.8667395"
       gradientTransform="matrix(1,0,0,1.5155948,0,-49.231099)"
       gradientUnits="userSpaceOnUse" />
    <radialGradient
       inkscape:collect="always"
       xlink:href="#linearGradient83"
       id="radialGradient85"
       cx="86.80451"
       cy="103.23139"
       fx="86.80451"
       fy="103.23139"
       r="1.2991604"
       gradientTransform="matrix(1,0,0,0.94153113,0,6.0358226)"
       gradientUnits="userSpaceOnUse" />
    <radialGradient
       inkscape:collect="always"
       xlink:href="#linearGradient85"
       id="radialGradient87"
       cx="89.638819"
       cy="106.84681"
       fx="89.638819"
       fy="106.84681"
       r="2.1957146"
       gradientTransform="matrix(1,0,0,0.43891633,0,59.949998)"
       gradientUnits="userSpaceOnUse" />
    <radialGradient
       inkscape:collect="always"
       xlink:href="#linearGradient87"
       id="radialGradient89"
       cx="94.870795"
       cy="111.80631"
       fx="94.870795"
       fy="111.80631"
       r="2.2981424"
       gradientTransform="matrix(1,0,0,0.48727258,0,57.326162)"
       gradientUnits="userSpaceOnUse" />
    <radialGradient
       inkscape:collect="always"
       xlink:href="#linearGradient89"
       id="radialGradient91"
       cx="98.816723"
       cy="116.46402"
       fx="98.816723"
       fy="116.46402"
       r="1.751822"
       gradientTransform="matrix(1,0,0,0.90561435,0,10.992531)"
       gradientUnits="userSpaceOnUse" />
    <radialGradient
       inkscape:collect="always"
       xlink:href="#linearGradient91"
       id="radialGradient93"
       cx="99.992632"
       cy="122.43382"
       fx="99.992632"
       fy="122.43382"
       r="1.1291436"
       gradientTransform="matrix(1,0,0,2.2360824,0,-151.33829)"
       gradientUnits="userSpaceOnUse" />
    <radialGradient
       inkscape:collect="always"
       xlink:href="#linearGradient93"
       id="radialGradient95"
       cx="98.096038"
       cy="131.34775"
       fx="98.096038"
       fy="131.34775"
       r="1.4482331"
       gradientTransform="matrix(1,0,0,2.4453103,0,-189.83826)"
       gradientUnits="userSpaceOnUse" />
    <radialGradient
       inkscape:collect="always"
       xlink:href="#linearGradient97"
       id="radialGradient98"
       cx="90.979688"
       cy="134.41102"
       fx="90.979688"
       fy="134.41102"
       r="3.224813"
       gradientTransform="matrix(1,0,0,0.66376361,0,45.193877)"
       gradientUnits="userSpaceOnUse" />
    <radialGradient
       inkscape:collect="always"
       xlink:href="#linearGradient98"
       id="radialGradient100"
       cx="83.49851"
       cy="131.14618"
       fx="83.49851"
       fy="131.14618"
       r="1.883181"
       gradientTransform="matrix(1,0,0,1.3938285,0,-51.649104)"
       gradientUnits="userSpaceOnUse" />
    <radialGradient
       inkscape:collect="always"
       xlink:href="#linearGradient100"
       id="radialGradient102"
       cx="80.968831"
       cy="123.53074"
       fx="80.968831"
       fy="123.53074"
       r="0.73568908"
       gradientTransform="matrix(1,0,0,3.8823504,0,-356.05886)"
       gradientUnits="userSpaceOnUse" />
    <radialGradient
       inkscape:collect="always"
       xlink:href="#linearGradient102"
       id="radialGradient104"
       cx="83.021297"
       cy="115.81572"
       fx="83.021297"
       fy="115.81572"
       r="1.2958255"
       gradientTransform="matrix(1,0,0,1.6018669,0,-69.705648)"
       gradientUnits="userSpaceOnUse" />
    <radialGradient
       inkscape:collect="always"
       xlink:href="#linearGradient104"
       id="radialGradient106"
       cx="89.374629"
       cy="110.19216"
       fx="89.374629"
       fy="110.19216"
       r="2.0016085"
       gradientTransform="matrix(1,0,0,0.81481219,0,20.406244)"
       gradientUnits="userSpaceOnUse" />
  </defs>
  <g
     inkscape:label="Layer 1"
     inkscape:groupmode="layer"
     id="layer1">
    <rect
       style="display:none;fill:#000000;fill-opacity:1;stroke-width:0.386915"
       id="rect8"
       width="206.95901"
       height="92.647346"
       x="2.6212666"
       y="79.114594" />
    <text
       xml:space="preserve"
       transform="matrix(0.26458333,0,0,0.26458333,-21.705238,3.9792934)"
       id="text2"
       style="font-style:normal;font-variant:normal;font-weight:normal;font-stretch:normal;font-size:192px;font-family:'MV Boli';-inkscape-font-specification:'MV Boli';text-align:center;letter-spacing:10px;word-spacing:0px;white-space:pre;shape-inside:url(#rect3);display:none;fill:#aa0000"
       x="315.08267"
       y="0"><tspan
         x="169.59961"
         y="493.9092"
         id="tspan1">FLOOF</tspan></text>
    <g
       id="g4"
       transform="matrix(1.0447671,0.23186223,-0.22392116,1.0481947,18.723409,-47.598147)"
       style="display:none">
      <path
         style="fill:#552200;stroke-width:0.264583"
         d="m 181.79966,101.86502 c 0,0 2.86048,3.17831 3.49614,6.83338 0.63567,3.65506 -2.22482,5.24422 -2.22482,5.24422 v -2.86049 c 0,0 -1.58915,0.79458 -1.43024,3.0194 0.15892,2.22482 1.74808,3.33723 3.65506,3.33723 1.90699,0 -0.31783,1.74808 -0.31783,1.74808 l -9.21711,-1.58916 v -14.77917 z"
         id="path3" />
      <path
         style="fill:#552200;stroke-width:0.216031"
         d="m 179.94564,96.779711 c 0,0 2.11888,3.813979 4.87342,4.608559 2.75454,0.79458 5.40313,0.79458 5.40313,0.79458 0,0 -2.54265,4.13181 -4.87341,3.65506 -2.33077,-0.47675 -6.56852,-3.65506 -6.56852,-3.65506 z"
         id="path2" />
      <path
         style="fill:#552200;stroke-width:0.264583"
         d="m 150.33433,146.83818 c 9.85278,8.74037 16.20941,5.08531 20.50014,0.31783 4.29072,-4.76747 -0.63567,-17.48073 -7.31013,-29.71725 -6.67446,-12.23651 -6.83338,-24.631942 0.79458,-25.585437 7.62796,-0.953495 17.63965,3.337232 18.91098,11.124107 1.27132,7.78687 -2.06591,8.42253 -2.06591,8.42253 0,0 0.15892,-1.74807 -0.15891,-3.0194 -0.31784,-1.27132 -1.74808,-2.70156 -1.74808,-2.70156 0,0 1.74808,2.54265 1.27133,6.35663 -0.47675,3.81397 0.15891,5.40313 3.33723,5.40313 3.17832,0 3.81398,-2.54265 3.81398,-2.54265 0,0 1.74807,4.60856 -1.58916,5.40314 -3.33723,0.79458 -10.64735,0.79458 -14.93808,-3.65506 -4.29073,-4.44965 -5.72097,-10.0117 -4.92639,-13.0311 0.79458,-3.0194 1.74807,-4.608556 1.74807,-4.608556 l -3.49614,4.131806 c 0,0 1.27132,-3.496144 0.79457,-4.926387 -0.47674,-1.430242 -3.33723,-1.906989 -3.33723,-1.906989 0,0 -3.81397,4.449646 2.22482,17.162906 6.0388,12.71326 12.55435,22.24821 10.80628,30.82966 -1.74808,8.58145 -10.0117,12.23652 -15.89158,10.80627 -5.87989,-1.43024 -7.94579,-3.81398 -9.85278,-6.51554 -1.90699,-2.70157 1.27133,-4.76748 1.27133,-4.76748 l 0.15891,2.38374 z"
         id="path1" />
      <path
         style="fill:#d38d5f;stroke-width:0.264583"
         d="m 151.28782,145.72577 c 0,0 2.22483,4.44965 9.85278,5.56205 7.62796,1.11242 11.44194,-7.31012 10.0117,-12.55434 -1.43024,-5.24422 -2.86049,-9.69386 -6.19772,-16.05049 -3.33723,-6.35664 -9.0582,-19.22882 -6.83337,-25.585445 2.22482,-6.356634 6.03879,-5.244222 6.03879,-5.244222 l -2.22482,2.383737 2.54266,0.317831 -3.33724,1.430242 0.80877,0.307078 c 0,0 -2.37942,3.346064 0.74357,11.227899 3.12299,7.88183 8.32798,18.2918 8.32798,18.2918 l 0.14871,-0.89228 c 0,0 4.08963,6.69212 4.16399,11.82275 0.0744,5.13063 0.5205,6.02291 0.5205,6.02291 l 0.5205,-0.89228 c 0,0 0.22307,5.87419 -4.16399,10.48432 -4.38706,4.61013 -9.96383,4.68449 -12.93811,3.64349 -2.97427,-1.041 -5.65112,-2.30506 -5.65112,-2.30506 l 1.26406,1.48713 c 0,0 -1.33842,-0.14871 -1.85892,-0.89228 -0.5205,-0.74357 -1.33842,-1.56149 -1.33842,-1.56149 l 0.44614,1.78456 c 0,0 -1.33843,-0.5205 -1.93328,-1.33842 -0.59485,-0.81793 -1.33842,-3.86656 -1.33842,-3.86656 z"
         id="path4" />
    </g>
    <g
       id="g51"
       style="display:inline">
      <path
         style="fill:#65909b;fill-opacity:1;stroke-width:0.264583"
         d="m 149.06956,137.16469 c 13.97527,0 16.30448,-8.79924 16.04568,-15.52807 -0.2588,-6.72884 2.84681,-18.8925 7.50523,-20.70411 4.65843,-1.811607 13.71647,-12.681264 21.48051,-13.716468 7.76404,-1.035206 10.09326,-1.035206 10.09326,-1.035206 0,0 -8.79925,5.952432 -11.38726,11.128457 -2.58802,5.176027 -6.21123,7.764037 -6.21123,7.764037 0,0 1.81161,4.39962 4.65842,6.72884 2.84681,2.32921 3.10561,3.88202 3.10561,3.88202 0,0 -6.47003,0.5176 -9.31684,-0.77641 -2.84682,-1.294 -5.69363,-2.32921 -7.50524,-2.32921 -1.81161,0 -3.36442,7.50524 -0.7764,17.33969 2.58801,9.83445 -4.39963,16.56328 -11.38726,21.73931 -6.98764,5.17602 -17.59849,3.36441 -24.84493,1.0352 -7.24643,-2.32921 8.54045,-15.52808 8.54045,-15.52808 z"
         id="path27" />
      <path
         style="fill:url(#linearGradient51);fill-rule:nonzero;stroke-width:0.264583"
         d="m 150.56804,147.23732 c 0,0 11.85344,1.27351 16.75156,-8.32679 4.89811,-9.6003 3.91849,-12.34325 4.4083,-20.86597 0.48981,-8.52272 0.68573,-9.99215 3.72257,-10.87381 3.03683,-0.88166 11.55955,-5.09404 13.32287,-6.95533 1.76332,-1.861279 6.85736,-8.326791 7.83698,-8.914563 0.97962,-0.587774 -3.23276,4.702188 -3.23276,4.702188 l -2.0572,3.918493 -1.76332,2.253132 -2.93887,2.44906 -0.098,0.97962 3.82053,6.46551 0.88166,3.23276 -9.30641,-1.27351 -4.50627,-1.5674 c 0,0 -1.27351,1.27351 -1.27351,3.62461 0,2.35109 0,9.11049 1.07759,12.83306 1.07758,3.72256 0.88166,5.38792 0.88166,5.38792 l 1.07758,-0.58777 c 0,0 1.37147,0 1.27351,0.88166 -0.098,0.88166 -0.19592,3.82053 -2.54702,4.80015 -2.35109,0.97962 -1.27351,1.37147 -3.91849,5.48589 -2.64498,4.11442 -11.75547,10.87381 -16.16378,10.87381 -4.4083,0 -10.09011,-0.68573 -10.09011,-0.68573 v -5.09404 z"
         id="path49" />
      <path
         style="fill:url(#radialGradient49);fill-opacity:1;fill-rule:nonzero;stroke-width:0.264583"
         d="m 155.60457,134.7405 c 0,0 1.75194,0.15926 3.34462,-1.11488 1.59268,-1.27414 2.70755,-2.86682 2.70755,-2.86682 0,0 -0.31853,-2.22975 -0.31853,-3.82242 0,-1.59268 2.54828,-1.11488 2.54828,-1.11488 v 1.11488 c 0,0 0.5922,-1.34872 0.69016,-7.32442 0.098,-5.9757 2.54702,-14.79231 5.87774,-18.12303 3.33072,-3.330713 14.59638,-12.343244 20.27819,-13.910641 5.68182,-1.567397 14.20453,-1.665359 14.20453,-1.665359 l -0.098,1.077584 c 0,0 -1.56739,0.979625 -2.15517,2.253134 -0.58777,1.273511 -2.35109,1.665359 -2.35109,1.665359 l -1.07759,-0.979623 c 0,0 -3.72256,3.624604 -5.68181,7.24921 -1.95925,3.624606 -5.58385,7.543096 -6.36755,7.934946 -0.7837,0.39185 2.74294,4.60423 2.74294,4.60423 0,0 4.89812,5.68181 7.73903,6.07366 2.8409,0.39185 -5.09404,0.68573 -5.09404,0.68573 0,0 -4.80016,0.098 -8.13087,-0.58777 -3.33072,-0.68573 -7.73903,-3.52664 -7.73903,-3.52664 0,0 2.84091,-0.19593 4.99608,0.48981 2.15517,0.68574 6.66144,1.27351 7.64106,0.19593 0.97962,-1.07759 -4.01645,-6.85736 -3.91849,-8.22884 0.098,-1.37147 2.44906,-0.68573 5.58385,-5.779773 3.13479,-5.094039 3.72257,-8.228832 5.192,-9.306417 1.46944,-1.077587 -3.23275,-2.057209 -12.7351,5.094039 -9.50234,7.151251 -14.59638,7.249211 -15.86989,17.535251 -1.27351,10.28604 -0.48981,14.69434 -2.74294,19.29857 -2.25314,4.60423 -10.57993,8.52272 -10.57993,8.52272 z"
         id="path35" />
    </g>
    <path
       style="display:inline;fill:url(#radialGradient77);stroke-width:0.264583"
       d="m 86.486423,111.14272 c 0,0 -7.831579,0 -11.747368,5.95881 -3.915791,5.95881 -7.150573,10.55561 -4.256293,20.60046 2.894279,10.04485 11.066361,14.30114 16.854918,13.96064 5.78856,-0.34051 13.96065,0.17025 21.45172,-5.61831 7.49108,-5.78856 7.49108,-15.1524 5.10755,-25.3675 -2.38352,-10.2151 -12.08787,-17.70618 -19.408696,-19.4087 -7.320825,-1.702509 -8.512588,-4.426538 -8.512588,-4.426538 0,0 -1.19176,2.553777 0.85126,6.639808 2.04302,4.08605 12.598627,8.68284 13.449884,17.53593 0.85126,8.85309 -2.724028,16.00366 -11.066361,14.4714 -8.342334,-1.53227 -5.107551,-7.49108 -3.234783,-8.00183 1.872771,-0.51076 7.491076,0 6.980322,3.57528 -0.510757,3.57529 -1.702517,3.57529 -1.702517,3.57529 0,0 5.107551,0.68101 7.320822,-5.10755 2.213277,-5.78856 1.362015,-10.04485 -0.170251,-12.25813 -1.532266,-2.21327 -4.596797,-5.2778 -7.320822,-5.95881 -2.724029,-0.681 -4.596797,-0.17025 -4.596797,-0.17025 z"
       id="path18" />
    <path
       style="display:inline;fill:url(#linearGradient79);stroke-width:0.264583"
       d="m 97.980182,131.02306 c 0,0 1.960816,-3.52947 -1.764734,-6.66678 -3.72555,-3.1373 -7.255018,-2.05885 -9.215834,-0.19608 -1.960814,1.86278 -3.137305,3.52947 -3.431427,5.58833 -0.294124,2.05885 0.686285,-0.4902 0.686285,-0.4902 0,0 1.889291,-2.50945 5.197649,-1.51169 3.308355,0.99775 3.938519,2.10054 2.993274,4.93628 -0.945245,2.83573 -1.207813,2.15305 -1.207813,2.15305 0,0 0.997757,0.68268 3.413385,-0.36759 2.415624,-1.05028 3.329215,-3.44532 3.329215,-3.44532 z"
       id="path32" />
    <g
       id="g17"
       transform="translate(39.735016,12.970769)"
       style="display:inline">
      <path
         style="display:inline;fill:url(#radialGradient57);fill-opacity:1;stroke-width:0.264583"
         d="m 80.479794,109.59437 c 0,0 -0.387472,-6.39329 4.262188,-9.10559 4.649667,-2.712304 6.199547,-7.361965 6.199547,-7.361965 l 0.19374,2.324831 0.96868,-3.680981 c 0,0 0.38747,1.35615 0.38747,2.712301 0,1.356151 -0.96868,2.712302 -0.96868,2.712302 0,0 4.26219,-6.97449 9.686801,-6.97449 5.4246,0 10.84921,2.712302 12.3991,6.780755 1.54988,4.068457 4.26218,7.168227 4.26218,7.168227 l -1.93735,-0.38747 c 0,0 2.13109,1.74362 2.32483,3.48725 0.19373,1.74362 0.19373,6.78075 0.19373,6.78075 l -1.54988,-1.74362 c 0,0 2.90603,4.45593 -0.19374,13.94899 -3.09977,9.49306 -4.64966,8.13691 -6.58702,12.59283 -1.93736,4.45593 -1.93736,7.36196 -1.93736,7.36196 l -1.16242,-2.7123 v -2.13109 c 0,0 -1.16241,2.90604 -2.90604,4.06845 -1.74362,1.16242 -2.32483,2.90604 -2.32483,2.90604 l 0.58121,-4.06845 c 0,0 -3.09977,7.94317 -14.14272,7.94317 -11.042949,0 -11.43042,-11.23669 -19.567329,-13.36778 -8.136908,-2.13109 -12.399097,1.74362 -12.399097,1.74362 0,0 0.387472,-9.49306 8.911852,-12.20536 8.52438,-2.7123 10.461739,-0.58121 10.461739,-0.58121 l -2.324831,-2.13109 c 0,0 1.937359,-3.87472 8.911852,-3.48725 6.974493,0.38747 8.524383,-0.38747 9.880533,-3.29351 1.35615,-2.90604 -1.54989,-4.64966 -1.54989,-4.64966 l 0.77494,1.74362 c 0,0 -0.77494,-0.58121 -2.13109,0.38748 -1.35615,0.96867 -1.35615,2.32483 -1.35615,2.32483 l 1.74362,-1.35616 c 0,0 -1.356149,1.16242 -1.356149,2.32484 0,1.16241 -0.387471,1.54988 -0.387471,1.54988 l -3.87472,-0.38747 -4.068453,0.19374 c 0,0 -0.774943,-4.26219 -1.743625,-5.61835 -0.96868,-1.35615 -3.487246,-2.7123 -3.487246,-2.7123 l 3.87472,0.96868 c 0,0 -1.162418,-0.58121 -1.937361,-2.13109 -0.774944,-1.54989 1.162415,-6.39329 1.162415,-6.39329 z"
         id="path15" />
      <path
         style="display:inline;fill:url(#linearGradient55);fill-opacity:1;stroke-width:0.264583"
         d="m 96.827529,113.84676 c 0,0 -2.86417,6.81948 -6.13752,7.7742 -3.273351,0.95473 -6.137529,0 -6.137529,0 0,0 -6.410307,-0.54555 -9.138097,0.13639 -2.727791,0.68195 -7.501422,0.68195 -7.501422,0.68195 l 2.591401,0.68195 h -3.682516 l 1.636673,0.95472 c 0,0 -5.864749,-0.40917 -8.45615,1.90946 -2.591398,2.31862 -4.228073,5.72836 -4.228073,5.72836 l 1.909453,-1.22751 c 0,0 -2.455011,2.04584 -2.864178,6.00114 -0.40917,3.95529 -0.27278,6.54669 -0.27278,6.54669 0,0 0.818337,-1.36389 2.31862,-2.18223 1.500286,-0.81833 3.409738,-1.2275 3.409738,-1.2275 l -1.500285,1.09111 c 0,0 6.001139,-3.40974 9.547265,-1.63667 3.546128,1.77306 4.637243,3.54612 4.637243,3.54612 l 2.318621,2.31863 -1.773063,0.13639 c 0,0 4.910021,4.36446 6.955864,4.63724 2.045843,0.27278 5.864749,-1.09112 5.319191,-1.09112 -0.54556,0 -3.682518,-1.09111 -3.682518,-1.09111 0,0 5.591971,-0.40917 7.910592,-2.04585 2.31862,-1.63667 3.9553,-4.36446 3.9553,-4.36446 l -2.31863,0.95473 c 0,0 9.274491,-8.45615 11.456721,-13.22978 2.18223,-4.77364 6.13753,-8.59254 6.13753,-8.59254 h -2.04584 c 0,0 6.54669,-8.45615 4.63724,-13.63895 -1.90946,-5.1828 -1.90946,-7.637814 -4.50086,-9.138096 -2.59139,-1.500286 -4.22807,-2.591401 -4.22807,-2.591401 h 2.31862 c 0,0 -6.27392,-1.773063 -9.956431,0 -3.68252,1.773063 -6.68309,4.091683 -6.68309,4.091683 0,0 -4.910017,0.81833 -6.410302,3.273344 -1.500286,2.45502 -1.773063,2.59141 -1.773063,2.59141 v -3.68252 c 0,0 -1.227505,1.50028 -1.500286,2.72779 -0.272777,1.22751 -0.272777,2.72779 -0.272777,2.72779 l -1.091118,-2.86418 c 0,0 -1.909453,3.54613 -1.909453,5.1828 0,1.63667 0.40917,3.40974 0.40917,3.40974 l -2.182233,-0.27278 c 0,0 0.818338,1.50028 2.045843,2.72779 1.227506,1.22751 2.591401,3.13696 2.591401,3.13696 h -1.773063 l 2.619698,3.11515 1.595387,-0.084 c 0,0 0.587772,-1.00761 0.67174,-1.51142 0.08397,-0.5038 0.587775,-3.86251 0.587775,-3.86251 l -1.175549,0.83968 c 0,0 0.167936,-1.76332 -0.33587,-2.8549 -0.503807,-1.09158 -1.259515,-2.68697 -1.259515,-2.68697 l 1.595385,0.92365 c 0,0 0.335872,-4.11442 3.862514,-5.54187 3.526646,-1.42745 4.954096,1.00761 4.954096,1.00761 l -0.25191,-1.25951 1.25952,1.84729 -0.33587,-1.76332 c 0,0 2.68696,-0.084 3.77854,1.76332 1.09158,1.84729 1.25952,5.28996 0.58778,6.46551 -0.67175,1.17554 -1.17555,2.35109 -1.17555,2.35109 0,0 0.92365,-0.41984 1.51142,-1.25951 0.58777,-0.83968 1.42327,-1.58101 1.42327,-1.58101 z"
         id="path16" />
      <path
         style="display:inline;fill:url(#radialGradient53);fill-opacity:1;stroke-width:0.264583"
         d="m 87.357624,99.234415 c 0,0 1.99886,-0.666287 4.886102,0.444194 2.887245,1.110481 4.886106,4.515951 4.960139,6.144651 0.07403,1.6287 -0.37016,3.4795 -0.37016,3.4795 l 0.888381,-1.25855 c 0,0 1.55467,1.77677 1.11048,4.88611 -0.444194,3.10934 -1.554671,9.47608 -5.552393,10.88269 -3.997722,1.4066 -9.105921,0.074 -9.105921,0.074 l 0.666287,0.74032 -1.92483,-0.81435 0.518223,0.59225 c 0,0 -10.216398,-1.40661 -12.585419,1.18451 -2.369021,2.59112 -5.404329,1.18451 -5.404329,1.18451 l 0.37016,0.74032 c 0,0 -1.406604,-0.88838 -4.293849,2.07289 -2.887244,2.96128 -3.183371,5.47836 -3.183371,5.47836 0,0 2.813211,-2.07289 4.960136,-2.29499 2.146924,-0.22209 5.478359,1.77677 10.512528,1.03645 5.034168,-0.74032 6.144646,-1.77677 6.144646,-1.77677 l -2.294988,1.8508 1.924828,-0.59225 -0.962414,0.81435 c 0,0 6.958997,1.03644 11.474942,-0.74032 4.515945,-1.77677 7.329157,-3.77563 7.329157,-3.77563 0,0 4.441911,-5.03417 5.848521,-5.92255 1.4066,-0.88838 2.22096,-1.4066 2.22096,-1.4066 l -1.62871,0.22209 c 0,0 3.18337,-3.99772 4.36788,-6.81093 1.18451,-2.81321 1.6287,-8.29157 -1.25854,-10.80866 -2.88724,-2.51708 -3.4795,-3.77562 -3.4795,-3.77562 l 0.81435,0.074 c 0,0 -1.6287,-2.813215 -5.404324,-3.257408 -3.775625,-0.444191 -9.920272,0.814353 -9.920272,0.814353 z"
         id="path17" />
    </g>
    <g
       id="g14"
       transform="matrix(1.0225428,0,0,1,-5.3170056,1.0203087)"
       style="display:inline">
      <path
         style="fill:url(#radialGradient67);stroke-width:0.264583"
         d="m 69.10612,91.98263 c 9.41273,6.434019 11.676552,13.10633 7.268057,22.39991 -4.408493,9.29359 -17.15738,25.49778 -8.816986,30.50202 8.340392,5.00423 13.821222,2.38297 13.821222,-3.81276 0,-6.19572 2.38297,-6.55316 4.289346,-6.07657 1.906376,0.4766 5.242533,2.85957 2.621267,11.19996 -2.621267,8.34039 -5.242534,9.65103 -8.340394,9.77017 -3.097861,0.11915 -11.199956,0.59575 -17.395677,-3.6936 -6.195721,-4.28934 -9.055285,-10.48506 -7.029762,-15.84675 2.025525,-5.36168 8.459544,-16.91908 10.604217,-21.44672 2.144672,-4.52765 3.812751,-10.36592 -1.429782,-13.70208 -5.242534,-3.336155 4.408492,-9.29358 4.408492,-9.29358 z"
         id="path9" />
      <path
         style="fill:#2c5aa0;fill-opacity:1;stroke-width:0.264583"
         d="m 83.844555,154.64236 c 0,0 -2.62214,0.064 -3.389596,-3.70937 -0.767455,-3.77332 0.06395,-6.26756 0.06395,-6.26756 0,0 -1.343048,1.9826 -2.686097,2.36633 -1.343046,0.38372 -1.023274,3.45355 0.06395,5.69196 1.087228,2.23841 1.854684,3.19773 2.75005,3.32564 0.895366,0.12791 3.197733,-1.407 3.197733,-1.407 z"
         id="path10" />
      <path
         style="fill:url(#linearGradient65);stroke-width:0.264583"
         d="m 76.873499,146.77594 c 0,0 -2.17446,-0.51164 -3.709371,-0.5756 -1.534912,-0.064 -4.476827,3.06983 -4.476827,3.06983 0,0 0.575593,0 0.895366,0.38373 0.319773,0.38373 0.767455,1.15118 0.767455,1.15118 l 0.575594,0.44768 c 0,0 1.662818,-2.17445 3.069822,-2.49423 1.407002,-0.31977 3.517506,-1.47095 3.517506,-1.47095 l -0.06395,0.76745 c 0,0 -2.62214,1.47096 -3.32564,1.66282 -0.703504,0.19187 -2.494233,1.85469 -2.622143,3.26169 -0.127908,1.407 0.25582,2.17446 0.25582,2.17446 0,0 0.639546,-0.63955 1.215136,-0.57559 0.575593,0.064 1.470959,0.12791 1.470959,0.12791 l 0.767456,-0.25582 c 0,0 -1.151184,-1.85469 -0.191865,-2.94192 0.959321,-1.08723 2.046549,-1.66282 2.75005,-2.94191 0.703503,-1.27909 0.639548,-2.23841 0.639548,-2.23841 z"
         id="path12" />
      <ellipse
         style="fill:url(#radialGradient59);stroke-width:0.264583"
         id="path13"
         ry="4.8285766"
         rx="4.5727582"
         cy="156.33716"
         cx="77.736885" />
      <path
         style="fill:url(#radialGradient62);stroke-width:0.264583"
         d="m 76.23395,147.03176 c 0,0 -1.151183,-0.44769 -1.534911,-1.08723 -0.383728,-0.63955 -0.703501,-1.79073 -0.703501,-1.79073 0,0 0.767456,-0.63955 1.726777,-0.51164 0.959318,0.12791 0.44768,-0.83141 1.470956,-1.02328 1.023274,-0.19186 1.407002,0.12791 1.407002,0.12791 0,0 0.191865,-0.89536 0.83141,-0.95932 0.639549,-0.064 1.087231,0.19187 1.087231,0.19187 0,0 0.383728,0.57559 0.06395,1.79073 -0.319773,1.21514 -0.831411,2.17446 -0.831411,2.17446 0,0 0.511638,0.31977 0.639548,0.89536 0.12791,0.57559 -0.319772,1.34305 -0.319772,1.34305 0,0 1.279091,0.38373 2.174456,1.02328 0.895366,0.63954 1.087229,1.98259 1.087229,1.98259 0,0 -0.383728,0.57559 -1.215139,0.57559 -0.831408,0 -0.831408,0.76746 -2.046546,1.21514 -1.215139,0.44768 -2.17446,0 -2.17446,0 l -1.215139,0.51164 c 0,0 0.255821,-2.43028 0.383728,-3.26169 0.12791,-0.83141 0.447683,-1.27909 0.447683,-1.27909 0,0 -0.255818,0.064 -0.57559,-0.63955 -0.319776,-0.7035 -0.06396,-1.08723 -0.06396,-1.08723 z"
         id="path11" />
      <path
         style="fill:#28170b;fill-opacity:1;stroke-width:0.264583"
         d="m 75.368866,158.81753 c 0,0 -0.447103,-0.25548 -0.766461,0.19162 -0.31936,0.4471 0.09581,0.70259 0.510974,0.99001 0.415168,0.28743 0.542912,0.19162 0.734528,-0.0958 0.191614,-0.28742 -0.09581,-0.83033 -0.09581,-0.83033 0,0 0.31936,-1.08582 0.798399,-2.01197 0.479039,-0.92614 1.053886,-1.30937 1.053886,-1.30937 0,0 0.542911,0.41517 0.95808,0 0.415168,-0.41517 0.447103,-0.7984 0.06387,-1.21357 -0.38323,-0.41516 -0.734526,-0.47904 -1.149694,-0.0639 -0.415168,0.41517 -0.255487,1.08582 -0.255487,1.08582 0,0 -0.734528,0.54292 -1.277437,1.5968 -0.542912,1.05389 -0.57485,1.66067 -0.57485,1.66067 z"
         id="path14" />
    </g>
    <g
       id="g15">
      <path
         style="fill:url(#radialGradient69);stroke-width:0.264583"
         d="m 19.157751,150.56192 c 11.828947,-0.90003 15.043335,-9.77174 15.814786,-15.17191 0.771454,-5.40017 6.685928,-6.55735 6.685928,-6.55735 l -1.157179,-0.64288 c 0,0 2.057207,-2.18578 6.043049,-1.92863 3.98584,0.25715 7.585954,-4.37157 7.585954,-4.37157 l -1.671482,-5.65732 c 0,0 -3.600114,-2.57151 -7.328805,-2.57151 -3.728688,0 -8.228832,-0.12857 -13.114699,4.62872 -4.88587,4.75729 -3.214389,15.94336 -7.20023,22.24356 -3.985841,6.3002 -5.657322,10.02889 -5.657322,10.02889 z"
         id="path5" />
      <path
         style="fill:url(#radialGradient71);stroke-width:0.264583"
         d="m 14.01473,152.36198 c 0,0 7.714531,-1.02861 13.243277,-8.61456 5.528747,-7.58596 8.228833,-17.61485 8.228833,-17.61485 l -1.414331,0.64288 c 0,0 4.114417,-4.75729 5.914475,-15.30048 1.800056,-10.5432 14.143305,-6.55736 14.143305,-6.55736 l -0.771454,-1.41433 c 0,0 1.542907,1.02861 3.728691,0.77146 2.185784,-0.25715 4.500142,-2.95724 4.88587,-5.914477 0.385725,-2.957237 -1.671482,-8.357407 -1.671482,-8.357407 0,0 -6.428777,-4.757295 -18.129146,-2.185783 C 30.472395,90.388582 26.486553,101.8318 26.486553,101.8318 l -0.128574,-1.67148 c 0,0 -3.600114,3.98584 -5.14302,15.81479 -1.542906,11.82894 -3.214388,26.10083 -6.685927,30.85812 -3.471538,4.75729 -9.2574362,5.65732 -9.2574362,5.65732 0,0 2.8286612,0.38573 4.8858692,0.38573 2.057208,0 3.857265,-0.5143 3.857265,-0.5143 z"
         id="path6" />
      <path
         style="fill:url(#linearGradient73);stroke-width:0.270867"
         d="m 42.277117,114.28222 c 0,0 1.967765,-0.81242 4.174048,-0.81242 2.206281,0 9.779191,-0.31248 11.210293,-0.93743 1.431102,-0.62496 2.98146,-1.56238 2.98146,-1.56238 0,0 -1.013696,6.18702 -2.087023,8.24935 -1.073325,2.06235 -4.412562,5.18711 -4.412562,5.18711 l 0.834811,-0.18749 c 0,0 -0.655924,2.12483 -3.8759,2.31232 -3.219979,0.18749 -8.049945,-0.31247 -8.049945,-0.31247 0,0 1.132954,-0.56246 1.311841,-0.81244 0.17889,-0.24998 0.715552,-0.74994 0.715552,-0.74994 0,0 -0.894439,0.0625 -1.311844,-0.0625 -0.417404,-0.12499 -0.954066,-0.62496 -0.954066,-0.62496 0,0 0.596292,-0.68745 0.894437,-0.99992 0.298146,-0.31248 0.298146,-0.31248 0.298146,-0.31248 l 0.834811,-0.31248 c 0,0 -1.192586,-0.49995 -1.550361,-0.49995 -0.357775,0 -0.715549,-0.24999 -0.715549,-0.24999 0,0 0.894437,-1.06241 1.252212,-1.1874 0.357775,-0.12499 1.311843,-0.62495 1.311843,-0.62495 0,0 -0.83481,-0.18749 -1.55036,-0.31248 -0.71555,-0.12499 -1.490731,-0.43747 -1.490731,-0.43747 0,0 0.596294,-1.68736 1.431102,-1.74986 0.834808,-0.0625 1.55036,-0.62496 1.55036,-0.62496 0,0 -1.311844,-0.12498 -2.027393,-0.12498 -0.71555,0 -1.729248,-0.18749 -1.729248,-0.18749 0,0 1.311844,-1.06242 2.027393,-1.18741 0.71555,-0.12498 1.013696,-0.43746 1.013696,-0.43746 z"
         id="path7" />
      <path
         style="fill:url(#linearGradient75);stroke-width:0.264583;fill-opacity:1"
         d="m 41.501938,88.787911 c 0,0 2.623685,-1.729248 6.201439,-1.729248 3.577754,0 9.182899,-1.908135 9.182899,-1.908135 l -0.954066,1.073327 c 0,0 2.862201,-1.490731 5.784035,-1.490731 2.92183,0 6.08218,2.623685 11.508438,1.908135 5.42626,-0.715552 7.69217,-2.921833 7.69217,-2.921833 0,0 0.775179,5.307001 -2.206281,10.077338 -2.98146,4.77034 -7.69217,7.692166 -11.210292,8.467346 -3.518125,0.77518 -4.591453,0.71556 -4.591453,0.71556 l 1.848507,0.77517 c 0,0 -1.371471,0.41741 -3.8759,0.53667 -2.504427,0.11926 -5.24737,0.11926 -5.24737,0.11926 0,0 -1.788877,-0.23852 -3.041092,-1.07333 -1.252212,-0.83481 -1.967764,-1.07333 -1.967764,-1.07333 0,0 1.490731,-0.11925 2.683316,-0.0596 1.192583,0.0596 -1.073327,-1.01369 -2.385168,-1.60998 -1.311844,-0.596297 -3.697012,-1.192588 -3.697012,-1.192588 0,0 1.788877,-0.536662 3.041089,-0.477033 1.252214,0.05963 1.729248,-0.417404 1.729248,-0.417404 0,0 -3.219977,-0.536665 -4.651079,-0.536665 -1.431102,0 -2.325539,0.178887 -2.325539,0.178887 0,0 0.715549,-1.013695 1.788877,-1.490728 1.073324,-0.477036 1.192583,-0.89444 1.192583,-0.89444 0,0 -1.848506,0.298145 -2.802573,0.298145 -0.954069,0 -2.444797,-0.05963 -2.444797,-0.05963 0,0 1.669616,-1.550357 2.742943,-1.729245 1.073325,-0.17889 1.729248,-0.536665 1.729248,-0.536665 0,0 -1.729248,-0.05963 -2.32554,-0.05963 -0.596294,0 -2.623687,0.119258 -2.623687,0.119258 0,0 1.132956,-0.834808 1.490731,-1.013695 0.357775,-0.178888 1.60999,-0.89444 1.60999,-0.89444 0,0 -0.71555,-0.178887 -1.550361,-0.238517 -0.834808,-0.05963 -2.26591,-0.596291 -2.26591,-0.596291 0,0 2.862202,-0.834808 3.756641,-1.132956 0.894438,-0.298146 1.729248,-0.954067 1.729248,-0.954067 0,0 -1.788877,0.119259 -2.921833,-0.05963 -1.132954,-0.178887 -2.623685,-0.119258 -2.623685,-0.119258 z"
         id="path8" />
    </g>
    <g
       id="g106"
       style="display:inline">
      <path
         style="fill:url(#radialGradient81);fill-opacity:1;stroke-width:0.264583"
         d="m 89.032094,99.354319 c 3.780978,2.993281 7.929552,2.888261 12.235666,5.618961 4.30611,2.73071 9.13736,9.66251 9.92507,14.17867 0.7877,4.51617 0.26256,10.97535 -0.31509,13.1284 -0.57764,2.15306 -1.16679,3.17589 -1.16679,3.17589 0,0 2.30259,-0.17056 3.13408,-0.29848 0.83149,-0.12792 2.9422,-0.53301 2.9422,-0.53301 0,0 0.70517,-3.36534 0.36758,-7.86648 -0.33759,-4.50115 -2.98201,-11.98429 -5.45763,-14.9663 -2.47563,-2.982 -6.80798,-7.98952 -12.265612,-9.67745 -5.457632,-1.68793 -7.876998,-2.13805 -9.058548,-2.982022 -1.18155,-0.843963 -1.575398,-1.912985 -1.575398,-1.912985 z"
         id="path33" />
      <path
         style="fill:url(#radialGradient83);fill-opacity:1;stroke-width:0.264583"
         d="m 89.177195,99.86181 c 0,0 1.779209,-0.889601 0.370668,-3.261879 -1.408539,-2.372275 -5.930689,-4.818684 -6.523757,-6.672024 -0.593069,-1.853343 -0.667203,5.263486 -0.667203,7.784029 0,2.520544 0.81547,3.039484 1.927474,3.336014 1.112004,0.29654 1.705073,0.29654 1.705073,0.29654 l 0.148267,-2.668815 c 0,0 1.03787,0.889603 1.85334,1.260275 0.81547,0.37066 1.186138,-0.0741 1.186138,-0.0741 z"
         id="path19" />
      <path
         style="fill:url(#radialGradient85);fill-opacity:1;stroke-width:0.28577"
         d="m 86.370169,102.00819 c -0.31448,1.14166 -0.864819,1.0601 -0.864819,1.0601 0,0 0.550339,1.3863 2.122736,1.3863 1.572401,0 -1.257917,-2.4464 -1.257917,-2.4464 z"
         id="path20" />
      <path
         style="fill:url(#radialGradient87);fill-opacity:1;stroke-width:0.264583"
         d="m 89.518847,105.88307 c -1.037873,0.59307 -2.075743,0.4448 -2.075743,0.4448 0,0 1.03787,1.48267 3.558415,1.48267 2.520543,0 -1.482672,-1.92747 -1.482672,-1.92747 z"
         id="path21" />
      <path
         style="fill:url(#radialGradient89);fill-opacity:1;stroke-width:0.264583"
         d="m 95.167329,110.90889 c -1.260271,0.2224 -2.594676,-0.2224 -2.594676,-0.2224 0,0 1.408539,2.0016 3.780814,2.22401 2.372278,0.2224 -1.186138,-2.00161 -1.186138,-2.00161 z"
         id="path22" />
      <path
         style="fill:url(#radialGradient91);fill-opacity:1;stroke-width:0.264583"
         d="m 99.066511,115.54474 c -0.889606,-0.0741 -2.00161,-0.6672 -2.00161,-0.6672 0,0 0.889603,2.22401 2.81708,3.03948 1.927469,0.81547 -0.81547,-2.37228 -0.81547,-2.37228 z"
         id="path23" />
      <path
         style="fill:url(#radialGradient93);fill-opacity:1;stroke-width:0.273075"
         d="m 100.48369,121.58923 c -0.996444,-0.38188 -1.609643,-1.68027 -1.609643,-1.68027 0,0 -0.229949,2.90229 1.456343,4.65894 1.6863,1.75666 0.1533,-2.97867 0.1533,-2.97867 z"
         id="path24" />
      <path
         style="fill:url(#radialGradient95);fill-opacity:1;stroke-width:0.264583"
         d="m 99.544271,130.17865 c -1.112007,-0.81547 -1.408541,-2.37228 -1.408541,-2.37228 0,0 -1.334405,2.96535 -1.482672,6.22723 -0.148268,3.26188 2.891213,-3.85495 2.891213,-3.85495 z"
         id="path25" />
      <path
         style="fill:url(#radialGradient98);fill-opacity:1;stroke-width:0.249292"
         d="m 91.835251,136.19959 c 0.197438,-1.70507 2.36925,-3.92908 2.36925,-3.92908 0,0 -2.961562,0.14827 -4.40944,1.112 -1.447874,0.96374 -2.040186,2.07574 -2.040186,2.07574 0,0 0.197438,0.81547 1.711124,1.03788 1.51369,0.2224 2.369252,-0.29654 2.369252,-0.29654 z"
         id="path26" />
      <path
         style="fill:url(#radialGradient100);fill-opacity:1;stroke-width:0.278717"
         d="m 82.861149,133.77101 c 1.408538,-0.98718 2.520542,-0.57585 2.520542,-0.57585 0,0 -0.370668,-1.64533 -1.334405,-2.71477 -0.963737,-1.06946 -1.927473,-2.63251 -2.149874,-1.64532 -0.222401,0.98719 -0.370668,1.89211 -0.222401,2.96156 0.148267,1.06946 1.186138,1.97438 1.186138,1.97438 z"
         id="path28" />
      <path
         style="fill:url(#radialGradient102);fill-opacity:1;stroke-width:0.22258"
         d="m 80.233142,124.91919 c 1.001663,0.24462 1.33555,1.46775 1.33555,1.46775 0,0 0.429284,-2.28317 -0.238491,-4.40323 -0.667775,-2.12008 -0.715473,-1.30466 -0.858568,-0.0815 -0.143094,1.22312 -0.238491,3.01702 -0.238491,3.01702 z"
         id="path29" />
      <path
         style="fill:url(#radialGradient104);fill-opacity:1;stroke-width:0.290703"
         d="m 83.06787,114.25892 c -1.163412,1.03787 -1.342399,3.63254 -1.342399,3.63254 0,0 1.342399,-0.81546 2.147838,-2.0016 0.805438,-1.18614 0.26848,-2.14988 0.26848,-2.14988 z"
         id="path30" />
      <path
         style="fill:url(#radialGradient106);fill-opacity:1;stroke-width:0.264583"
         d="m 91.376237,111.45243 c -0.296534,-1.33441 -2.372278,-2.37228 -2.372278,-2.37228 l -1.630939,-0.51893 c 0,0 0.593069,0.59306 0.593069,1.26027 0,0.6672 -0.370668,2.0016 -0.370668,2.0016 0,0 1.408538,-0.74133 2.372275,-0.6672 0.96374,0.0741 1.408541,0.29654 1.408541,0.29654 z"
         id="path31" />
    </g>
  </g>
</svg>
